<svg width="962" height="257" viewBox="0 0 962 257" fill="none" xmlns="http://www.w3.org/2000/svg">
<mask id="path-1-outside-1_37_2" maskUnits="userSpaceOnUse" x="382.364" y="46" width="576" height="160" fill="black">
<rect fill="white" x="382.364" y="46" width="576" height="160"/>
<path d="M567.743 68.3765L533.517 198.861L531.378 201H512.126L509.987 198.861L477.901 85.4892H475.762L443.676 198.861L441.536 201H422.285L420.146 198.861L385.92 68.3765V53.4029L388.059 51.2638H400.894L403.033 53.4029L430.841 162.496H432.98L465.066 53.4029L467.205 51.2638H486.457L488.596 53.4029L520.683 162.496H522.822L550.63 53.4029L552.769 51.2638H565.604L567.743 53.4029V68.3765ZM685.326 151.801C685.326 167.63 680.477 180.18 670.78 189.449C661.083 198.576 648.105 203.139 631.848 203.139C617.16 203.139 605.252 199.075 596.126 190.946C587.141 182.675 582.649 172.479 582.649 160.357L584.788 158.218H601.901L604.04 160.357C604.04 166.347 606.465 171.766 611.313 176.614C616.162 181.463 623.007 183.887 631.848 183.887C642.259 183.887 650.173 181.035 655.592 175.331C661.154 169.484 663.935 161.641 663.935 151.801C663.935 142.246 661.439 134.902 656.448 129.768C651.599 124.492 644.826 121.854 636.127 121.854C632.989 121.854 629.995 122.424 627.142 123.565C624.29 124.563 622.223 125.561 620.939 126.56L619.014 128.271H612.597L610.458 126.132V111.158L651.1 72.6547V70.5156H591.206L589.067 68.3765V53.4029L591.206 51.2638H674.63L676.769 53.4029V70.5156L674.63 74.7938L642.544 104.741V106.88C643.399 106.738 644.826 106.666 646.822 106.666C656.804 106.666 665.717 110.374 673.561 117.789C681.404 125.205 685.326 136.542 685.326 151.801ZM820.046 160.357C820.046 172.907 815.198 183.174 805.501 191.16C795.946 199.146 781.543 203.139 762.291 203.139C743.752 203.139 729.135 198.932 718.44 190.518C707.744 181.962 702.397 169.769 702.397 153.94L704.536 151.801H721.648L723.787 153.94C723.787 173.905 737.335 183.887 764.43 183.887C774.84 183.887 783.111 182.033 789.244 178.326C795.518 174.475 798.656 168.486 798.656 160.357C798.656 151.231 795.518 144.885 789.244 141.319C783.111 137.754 771.988 134.831 755.874 132.549C723.074 127.843 706.675 113.583 706.675 89.7674C706.675 78.7868 711.095 69.3035 719.937 61.3175C728.921 53.189 742.326 49.1247 760.152 49.1247C777.122 49.1247 790.598 52.8325 800.581 60.248C810.706 67.5209 815.768 78.7868 815.768 94.0456L813.629 96.1847H796.516L794.377 94.0456C794.377 85.204 791.668 78.7155 786.249 74.5799C780.83 70.4443 771.418 68.3765 758.013 68.3765C748.601 68.3765 741.257 70.3017 735.98 74.1521C730.704 78.0024 728.066 83.2075 728.066 89.7674C728.066 98.0386 730.918 103.814 736.622 107.094C742.326 110.374 753.022 113.155 768.708 115.436C785.251 117.861 797.942 122.495 806.784 129.341C815.626 136.043 820.046 146.382 820.046 160.357ZM954.834 68.3765L905.635 198.861L903.496 201H884.244L882.105 198.861L832.906 68.3765V53.4029L835.045 51.2638H847.88L850.019 53.4029L892.8 171.053H894.94L937.721 53.4029L939.86 51.2638H952.695L954.834 53.4029V68.3765Z"/>
</mask>
<path d="M567.743 68.3765L533.517 198.861L531.378 201H512.126L509.987 198.861L477.901 85.4892H475.762L443.676 198.861L441.536 201H422.285L420.146 198.861L385.92 68.3765V53.4029L388.059 51.2638H400.894L403.033 53.4029L430.841 162.496H432.98L465.066 53.4029L467.205 51.2638H486.457L488.596 53.4029L520.683 162.496H522.822L550.63 53.4029L552.769 51.2638H565.604L567.743 53.4029V68.3765ZM685.326 151.801C685.326 167.63 680.477 180.18 670.78 189.449C661.083 198.576 648.105 203.139 631.848 203.139C617.16 203.139 605.252 199.075 596.126 190.946C587.141 182.675 582.649 172.479 582.649 160.357L584.788 158.218H601.901L604.04 160.357C604.04 166.347 606.465 171.766 611.313 176.614C616.162 181.463 623.007 183.887 631.848 183.887C642.259 183.887 650.173 181.035 655.592 175.331C661.154 169.484 663.935 161.641 663.935 151.801C663.935 142.246 661.439 134.902 656.448 129.768C651.599 124.492 644.826 121.854 636.127 121.854C632.989 121.854 629.995 122.424 627.142 123.565C624.29 124.563 622.223 125.561 620.939 126.56L619.014 128.271H612.597L610.458 126.132V111.158L651.1 72.6547V70.5156H591.206L589.067 68.3765V53.4029L591.206 51.2638H674.63L676.769 53.4029V70.5156L674.63 74.7938L642.544 104.741V106.88C643.399 106.738 644.826 106.666 646.822 106.666C656.804 106.666 665.717 110.374 673.561 117.789C681.404 125.205 685.326 136.542 685.326 151.801ZM820.046 160.357C820.046 172.907 815.198 183.174 805.501 191.16C795.946 199.146 781.543 203.139 762.291 203.139C743.752 203.139 729.135 198.932 718.44 190.518C707.744 181.962 702.397 169.769 702.397 153.94L704.536 151.801H721.648L723.787 153.94C723.787 173.905 737.335 183.887 764.43 183.887C774.84 183.887 783.111 182.033 789.244 178.326C795.518 174.475 798.656 168.486 798.656 160.357C798.656 151.231 795.518 144.885 789.244 141.319C783.111 137.754 771.988 134.831 755.874 132.549C723.074 127.843 706.675 113.583 706.675 89.7674C706.675 78.7868 711.095 69.3035 719.937 61.3175C728.921 53.189 742.326 49.1247 760.152 49.1247C777.122 49.1247 790.598 52.8325 800.581 60.248C810.706 67.5209 815.768 78.7868 815.768 94.0456L813.629 96.1847H796.516L794.377 94.0456C794.377 85.204 791.668 78.7155 786.249 74.5799C780.83 70.4443 771.418 68.3765 758.013 68.3765C748.601 68.3765 741.257 70.3017 735.98 74.1521C730.704 78.0024 728.066 83.2075 728.066 89.7674C728.066 98.0386 730.918 103.814 736.622 107.094C742.326 110.374 753.022 113.155 768.708 115.436C785.251 117.861 797.942 122.495 806.784 129.341C815.626 136.043 820.046 146.382 820.046 160.357ZM954.834 68.3765L905.635 198.861L903.496 201H884.244L882.105 198.861L832.906 68.3765V53.4029L835.045 51.2638H847.88L850.019 53.4029L892.8 171.053H894.94L937.721 53.4029L939.86 51.2638H952.695L954.834 53.4029V68.3765Z" fill="white"/>
<path d="M567.743 68.3765L570.478 69.0941L570.571 68.7413V68.3765H567.743ZM533.517 198.861L535.517 200.861L536.058 200.319L536.253 199.578L533.517 198.861ZM531.378 201V203.828H532.55L533.378 203L531.378 201ZM512.126 201L510.127 203L510.955 203.828H512.126V201ZM509.987 198.861L507.266 199.631L507.467 200.34L507.987 200.861L509.987 198.861ZM477.901 85.4892L480.622 84.7191L480.04 82.6611H477.901V85.4892ZM475.762 85.4892V82.6611H473.623L473.041 84.7191L475.762 85.4892ZM443.676 198.861L445.675 200.861L446.196 200.34L446.397 199.631L443.676 198.861ZM441.536 201V203.828H442.708L443.536 203L441.536 201ZM422.285 201L420.285 203L421.113 203.828H422.285V201ZM420.146 198.861L417.41 199.578L417.604 200.319L418.146 200.861L420.146 198.861ZM385.92 68.3765H383.092V68.7413L383.185 69.0941L385.92 68.3765ZM385.92 53.4029L383.92 51.4031L383.092 52.2315V53.4029H385.92ZM388.059 51.2638V48.4357H386.888L386.059 49.264L388.059 51.2638ZM400.894 51.2638L402.894 49.264L402.065 48.4357H400.894V51.2638ZM403.033 53.4029L405.773 52.7044L405.582 51.9521L405.033 51.4031L403.033 53.4029ZM430.841 162.496L428.1 163.195L428.643 165.325H430.841V162.496ZM432.98 162.496V165.325H435.096L435.693 163.294L432.98 162.496ZM465.066 53.4029L463.067 51.4031L462.557 51.9131L462.353 52.6049L465.066 53.4029ZM467.205 51.2638V48.4357H466.034L465.206 49.264L467.205 51.2638ZM486.457 51.2638L488.457 49.264L487.629 48.4357H486.457V51.2638ZM488.596 53.4029L491.31 52.6049L491.106 51.9131L490.596 51.4031L488.596 53.4029ZM520.683 162.496L517.969 163.294L518.567 165.325H520.683V162.496ZM522.822 162.496V165.325H525.019L525.562 163.195L522.822 162.496ZM550.63 53.4029L548.63 51.4031L548.081 51.9521L547.889 52.7043L550.63 53.4029ZM552.769 51.2638V48.4357H551.598L550.769 49.264L552.769 51.2638ZM565.604 51.2638L567.603 49.264L566.775 48.4357H565.604V51.2638ZM567.743 53.4029H570.571V52.2315L569.742 51.4031L567.743 53.4029ZM565.007 67.659L530.782 198.143L536.253 199.578L570.478 69.0941L565.007 67.659ZM531.517 196.861L529.378 199L533.378 203L535.517 200.861L531.517 196.861ZM531.378 198.172H512.126V203.828H531.378V198.172ZM514.126 199L511.987 196.861L507.987 200.861L510.127 203L514.126 199ZM512.708 198.091L480.622 84.7191L475.18 86.2594L507.266 199.631L512.708 198.091ZM477.901 82.6611H475.762V88.3174H477.901V82.6611ZM473.041 84.7191L440.954 198.091L446.397 199.631L478.483 86.2594L473.041 84.7191ZM441.676 196.861L439.537 199L443.536 203L445.675 200.861L441.676 196.861ZM441.536 198.172H422.285V203.828H441.536V198.172ZM424.284 199L422.145 196.861L418.146 200.861L420.285 203L424.284 199ZM422.881 198.143L388.656 67.659L383.185 69.0941L417.41 199.578L422.881 198.143ZM388.748 68.3765V53.4029H383.092V68.3765H388.748ZM387.92 55.4027L390.059 53.2636L386.059 49.264L383.92 51.4031L387.92 55.4027ZM388.059 54.0919H400.894V48.4357H388.059V54.0919ZM398.894 53.2636L401.033 55.4027L405.033 51.4031L402.894 49.264L398.894 53.2636ZM400.292 54.1015L428.1 163.195L433.581 161.798L405.773 52.7044L400.292 54.1015ZM430.841 165.325H432.98V159.668H430.841V165.325ZM435.693 163.294L467.78 54.2009L462.353 52.6049L430.267 161.698L435.693 163.294ZM467.066 55.4027L469.205 53.2636L465.206 49.264L463.067 51.4031L467.066 55.4027ZM467.205 54.0919H486.457V48.4357H467.205V54.0919ZM484.457 53.2636L486.597 55.4027L490.596 51.4031L488.457 49.264L484.457 53.2636ZM485.883 54.2009L517.969 163.294L523.396 161.698L491.31 52.6049L485.883 54.2009ZM520.683 165.325H522.822V159.668H520.683V165.325ZM525.562 163.195L553.37 54.1015L547.889 52.7043L520.081 161.798L525.562 163.195ZM552.63 55.4027L554.769 53.2636L550.769 49.264L548.63 51.4031L552.63 55.4027ZM552.769 54.0919H565.604V48.4357H552.769V54.0919ZM563.604 53.2636L565.743 55.4027L569.742 51.4031L567.603 49.264L563.604 53.2636ZM564.915 53.4029V68.3765H570.571V53.4029H564.915ZM670.78 189.449L672.718 191.508L672.726 191.501L672.734 191.493L670.78 189.449ZM596.126 190.946L594.21 193.027L594.227 193.043L594.245 193.058L596.126 190.946ZM582.649 160.357L580.65 158.358L579.821 159.186V160.357H582.649ZM584.788 158.218V155.39H583.617L582.789 156.218L584.788 158.218ZM601.901 158.218L603.901 156.218L603.073 155.39H601.901V158.218ZM604.04 160.357H606.868V159.186L606.04 158.358L604.04 160.357ZM611.313 176.614L609.313 178.614L609.313 178.614L611.313 176.614ZM655.592 175.331L653.543 173.382L653.542 173.383L655.592 175.331ZM656.448 129.768L654.366 131.682L654.392 131.711L654.42 131.74L656.448 129.768ZM627.142 123.565L628.077 126.234L628.135 126.214L628.193 126.191L627.142 123.565ZM620.939 126.56L619.203 124.327L619.13 124.384L619.06 124.446L620.939 126.56ZM619.014 128.271V131.099H620.089L620.893 130.385L619.014 128.271ZM612.597 128.271L610.597 130.271L611.425 131.099H612.597V128.271ZM610.458 126.132H607.629V127.303L608.458 128.132L610.458 126.132ZM610.458 111.158L608.513 109.105L607.629 109.942V111.158H610.458ZM651.1 72.6547L653.045 74.7078L653.928 73.8712V72.6547H651.1ZM651.1 70.5156H653.928V67.6875H651.1V70.5156ZM591.206 70.5156L589.206 72.5154L590.034 73.3437H591.206V70.5156ZM589.067 68.3765H586.239V69.548L587.067 70.3763L589.067 68.3765ZM589.067 53.4029L587.067 51.4031L586.239 52.2315V53.4029H589.067ZM591.206 51.2638V48.4357H590.034L589.206 49.264L591.206 51.2638ZM674.63 51.2638L676.63 49.264L675.802 48.4357H674.63V51.2638ZM676.769 53.4029H679.597V52.2315L678.769 51.4031L676.769 53.4029ZM676.769 70.5156L679.299 71.7804L679.597 71.1833V70.5156H676.769ZM674.63 74.7938L676.56 76.8613L676.932 76.5139L677.16 76.0586L674.63 74.7938ZM642.544 104.741L640.614 102.674L639.716 103.512V104.741H642.544ZM642.544 106.88H639.716V110.219L643.009 109.67L642.544 106.88ZM673.561 117.789L675.504 115.734L673.561 117.789ZM682.498 151.801C682.498 167.009 677.864 178.765 668.826 187.405L672.734 191.493C683.09 181.595 688.154 168.252 688.154 151.801H682.498ZM668.842 187.389C659.78 195.918 647.553 200.311 631.848 200.311V205.967C648.658 205.967 662.386 201.233 672.718 191.508L668.842 187.389ZM631.848 200.311C617.706 200.311 606.515 196.412 598.007 188.834L594.245 193.058C603.99 201.737 616.614 205.967 631.848 205.967V200.311ZM598.041 188.866C589.634 181.125 585.478 171.682 585.478 160.357H579.821C579.821 173.276 584.649 184.225 594.21 193.027L598.041 188.866ZM584.649 162.357L586.788 160.218L582.789 156.218L580.65 158.358L584.649 162.357ZM584.788 161.046H601.901V155.39H584.788V161.046ZM599.901 160.218L602.04 162.357L606.04 158.358L603.901 156.218L599.901 160.218ZM601.212 160.357C601.212 167.207 604.018 173.319 609.313 178.614L613.313 174.615C608.911 170.213 606.868 165.486 606.868 160.357H601.212ZM609.313 178.614C614.834 184.135 622.484 186.715 631.848 186.715V181.059C623.53 181.059 617.49 178.791 613.313 174.615L609.313 178.614ZM631.848 186.715C642.772 186.715 651.533 183.71 657.643 177.279L653.542 173.383C648.814 178.36 641.745 181.059 631.848 181.059V186.715ZM657.641 177.28C663.808 170.797 666.763 162.198 666.763 151.801H661.107C661.107 161.083 658.5 168.171 653.543 173.382L657.641 177.28ZM666.763 151.801C666.763 141.763 664.133 133.616 658.476 127.797L654.42 131.74C658.745 136.188 661.107 142.729 661.107 151.801H666.763ZM658.53 127.855C653.034 121.873 645.434 119.026 636.127 119.026V124.682C644.217 124.682 650.165 127.111 654.366 131.682L658.53 127.855ZM636.127 119.026C632.637 119.026 629.285 119.662 626.092 120.939L628.193 126.191C630.704 125.187 633.341 124.682 636.127 124.682V119.026ZM626.208 120.896C623.27 121.924 620.854 123.043 619.203 124.327L622.675 128.792C623.591 128.08 625.31 127.203 628.077 126.234L626.208 120.896ZM619.06 124.446L617.135 126.157L620.893 130.385L622.818 128.673L619.06 124.446ZM619.014 125.443H612.597V131.099H619.014V125.443ZM614.596 126.271L612.457 124.132L608.458 128.132L610.597 130.271L614.596 126.271ZM613.286 126.132V111.158H607.629V126.132H613.286ZM612.403 113.211L653.045 74.7078L649.155 70.6016L608.513 109.105L612.403 113.211ZM653.928 72.6547V70.5156H648.272V72.6547H653.928ZM651.1 67.6875H591.206V73.3437H651.1V67.6875ZM593.206 68.5158L591.066 66.3768L587.067 70.3763L589.206 72.5154L593.206 68.5158ZM591.895 68.3765V53.4029H586.239V68.3765H591.895ZM591.066 55.4027L593.206 53.2636L589.206 49.264L587.067 51.4031L591.066 55.4027ZM591.206 54.0919H674.63V48.4357H591.206V54.0919ZM672.63 53.2636L674.769 55.4027L678.769 51.4031L676.63 49.264L672.63 53.2636ZM673.941 53.4029V70.5156H679.597V53.4029H673.941ZM674.24 69.2508L672.101 73.529L677.16 76.0586L679.299 71.7804L674.24 69.2508ZM672.7 72.7263L640.614 102.674L644.474 106.809L676.56 76.8613L672.7 72.7263ZM639.716 104.741V106.88H645.372V104.741H639.716ZM643.009 109.67C643.613 109.569 644.834 109.494 646.822 109.494V103.838C644.817 103.838 643.186 103.906 642.079 104.09L643.009 109.67ZM646.822 109.494C656.02 109.494 664.253 112.881 671.618 119.845L675.504 115.734C667.182 107.867 657.589 103.838 646.822 103.838V109.494ZM671.618 119.845C678.695 126.536 682.498 136.992 682.498 151.801H688.154C688.154 136.093 684.113 123.874 675.504 115.734L671.618 119.845ZM805.501 191.16L803.703 188.977L803.695 188.984L803.687 188.99L805.501 191.16ZM718.44 190.518L716.673 192.727L716.682 192.734L716.691 192.741L718.44 190.518ZM702.397 153.94L700.397 151.94L699.568 152.769V153.94H702.397ZM704.536 151.801V148.973H703.364L702.536 149.801L704.536 151.801ZM721.648 151.801L723.648 149.801L722.82 148.973H721.648V151.801ZM723.787 153.94H726.616V152.769L725.787 151.94L723.787 153.94ZM789.244 178.326L790.707 180.746L790.715 180.741L790.723 180.736L789.244 178.326ZM789.244 141.319L787.822 143.764L787.834 143.771L787.846 143.778L789.244 141.319ZM755.874 132.549L755.472 135.349L755.477 135.349L755.874 132.549ZM719.937 61.3175L721.833 63.4163L721.834 63.4147L719.937 61.3175ZM800.581 60.248L798.894 62.5182L798.912 62.5317L798.931 62.5449L800.581 60.248ZM815.768 94.0456L817.768 96.0454L818.596 95.217V94.0456H815.768ZM813.629 96.1847V99.0128H814.801L815.629 98.1845L813.629 96.1847ZM796.516 96.1847L794.517 98.1845L795.345 99.0128H796.516V96.1847ZM794.377 94.0456H791.549V95.217L792.378 96.0454L794.377 94.0456ZM786.249 74.5799L784.533 76.8281L784.533 76.8281L786.249 74.5799ZM735.98 74.1521L734.313 71.8675L734.313 71.8675L735.98 74.1521ZM736.622 107.094L735.212 109.546L735.212 109.546L736.622 107.094ZM768.708 115.436L769.118 112.638L769.115 112.638L768.708 115.436ZM806.784 129.341L805.053 131.577L805.064 131.586L805.076 131.594L806.784 129.341ZM817.218 160.357C817.218 172.061 812.748 181.528 803.703 188.977L807.298 193.343C817.647 184.821 822.875 173.753 822.875 160.357H817.218ZM803.687 188.99C794.854 196.373 781.224 200.311 762.291 200.311V205.967C781.861 205.967 797.038 201.92 807.314 193.33L803.687 188.99ZM762.291 200.311C744.159 200.311 730.232 196.197 720.188 188.296L716.691 192.741C728.039 201.668 743.346 205.967 762.291 205.967V200.311ZM720.206 188.31C710.291 180.378 705.225 169.061 705.225 153.94H699.568C699.568 170.478 705.197 183.546 716.673 192.727L720.206 188.31ZM704.396 155.94L706.535 153.801L702.536 149.801L700.397 151.94L704.396 155.94ZM704.536 154.629H721.648V148.973H704.536V154.629ZM719.649 153.801L721.788 155.94L725.787 151.94L723.648 149.801L719.649 153.801ZM720.959 153.94C720.959 164.631 724.633 173.05 732.27 178.677C739.746 184.186 750.618 186.715 764.43 186.715V181.059C751.147 181.059 741.697 178.597 735.626 174.124C729.716 169.769 726.616 163.213 726.616 153.94H720.959ZM764.43 186.715C775.136 186.715 783.977 184.815 790.707 180.746L787.78 175.906C782.246 179.252 774.544 181.059 764.43 181.059V186.715ZM790.723 180.736C797.935 176.31 801.484 169.347 801.484 160.357H795.827C795.827 167.625 793.101 172.64 787.764 175.915L790.723 180.736ZM801.484 160.357C801.484 150.527 798.042 143.066 790.641 138.861L787.846 143.778C792.994 146.703 795.827 151.935 795.827 160.357H801.484ZM790.665 138.875C784.013 135.007 772.398 132.033 756.27 129.749L755.477 135.349C771.579 137.629 782.21 140.502 787.822 143.764L790.665 138.875ZM756.275 129.75C740.152 127.436 728.457 122.822 720.83 116.19C713.312 109.652 709.503 100.945 709.503 89.7674H703.847C703.847 102.405 708.238 112.736 717.119 120.458C725.892 128.087 738.796 132.956 755.472 135.349L756.275 129.75ZM709.503 89.7674C709.503 79.66 713.528 70.9171 721.833 63.4163L718.041 59.2188C708.663 67.6898 703.847 77.9136 703.847 89.7674H709.503ZM721.834 63.4147C730.1 55.9363 742.703 51.9529 760.152 51.9529V46.2966C741.949 46.2966 727.742 50.4417 718.04 59.2204L721.834 63.4147ZM760.152 51.9529C776.732 51.9529 789.549 55.5764 798.894 62.5182L802.267 57.9777C791.647 50.0886 777.512 46.2966 760.152 46.2966V51.9529ZM798.931 62.5449C808.147 69.1654 812.94 79.4678 812.94 94.0456H818.596C818.596 78.1057 813.264 65.8764 802.231 57.951L798.931 62.5449ZM813.768 92.0458L811.629 94.1849L815.629 98.1845L817.768 96.0454L813.768 92.0458ZM813.629 93.3566H796.516V99.0128H813.629V93.3566ZM798.516 94.1849L796.377 92.0458L792.378 96.0454L794.517 98.1845L798.516 94.1849ZM797.205 94.0456C797.205 84.6081 794.284 77.1547 787.965 72.3317L784.533 76.8281C789.051 80.2762 791.549 85.7999 791.549 94.0456H797.205ZM787.965 72.3317C781.763 67.5986 771.531 65.5484 758.013 65.5484V71.2047C771.304 71.2047 779.897 73.2901 784.533 76.8281L787.965 72.3317ZM758.013 65.5484C748.256 65.5484 740.245 67.5389 734.313 71.8675L737.647 76.4366C742.268 73.0645 748.946 71.2047 758.013 71.2047V65.5484ZM734.313 71.8675C728.303 76.253 725.237 82.3089 725.237 89.7674H730.894C730.894 84.1062 733.104 79.7518 737.647 76.4366L734.313 71.8675ZM725.237 89.7674C725.237 98.7481 728.396 105.627 735.212 109.546L738.032 104.642C733.439 102.002 730.894 97.329 730.894 89.7674H725.237ZM735.212 109.546C741.434 113.123 752.622 115.955 768.301 118.235L769.115 112.638C753.421 110.355 743.219 107.625 738.032 104.642L735.212 109.546ZM768.298 118.235C784.58 120.621 796.74 125.141 805.053 131.577L808.515 127.104C799.145 119.85 785.922 115.101 769.118 112.638L768.298 118.235ZM805.076 131.594C813.032 137.625 817.218 147.013 817.218 160.357H822.875C822.875 145.751 818.22 134.461 808.493 127.087L805.076 131.594ZM954.834 68.3765L957.48 69.3743L957.662 68.892V68.3765H954.834ZM905.635 198.861L907.635 200.861L908.066 200.429L908.281 199.859L905.635 198.861ZM903.496 201V203.828H904.667L905.496 203L903.496 201ZM884.244 201L882.244 203L883.073 203.828H884.244V201ZM882.105 198.861L879.459 199.859L879.674 200.429L880.105 200.861L882.105 198.861ZM832.906 68.3765H830.078V68.892L830.26 69.3743L832.906 68.3765ZM832.906 53.4029L830.906 51.4031L830.078 52.2315V53.4029H832.906ZM835.045 51.2638V48.4357H833.874L833.045 49.264L835.045 51.2638ZM847.88 51.2638L849.879 49.264L849.051 48.4357H847.88V51.2638ZM850.019 53.4029L852.677 52.4364L852.462 51.8468L852.018 51.4031L850.019 53.4029ZM892.8 171.053L890.143 172.019L890.82 173.881H892.8V171.053ZM894.94 171.053V173.881H896.92L897.597 172.019L894.94 171.053ZM937.721 53.4029L935.722 51.4031L935.278 51.8468L935.063 52.4364L937.721 53.4029ZM939.86 51.2638V48.4357H938.689L937.861 49.264L939.86 51.2638ZM952.695 51.2638L954.695 49.264L953.866 48.4357H952.695V51.2638ZM954.834 53.4029H957.662V52.2315L956.834 51.4031L954.834 53.4029ZM952.188 67.3788L902.989 197.863L908.281 199.859L957.48 69.3743L952.188 67.3788ZM903.635 196.861L901.496 199L905.496 203L907.635 200.861L903.635 196.861ZM903.496 198.172H884.244V203.828H903.496V198.172ZM886.244 199L884.105 196.861L880.105 200.861L882.244 203L886.244 199ZM884.751 197.863L835.552 67.3788L830.26 69.3743L879.459 199.859L884.751 197.863ZM835.734 68.3765V53.4029H830.078V68.3765H835.734ZM834.906 55.4027L837.045 53.2636L833.045 49.264L830.906 51.4031L834.906 55.4027ZM835.045 54.0919H847.88V48.4357H835.045V54.0919ZM845.88 53.2636L848.019 55.4027L852.018 51.4031L849.879 49.264L845.88 53.2636ZM847.361 54.3694L890.143 172.019L895.458 170.086L852.677 52.4364L847.361 54.3694ZM892.8 173.881H894.94V168.225H892.8V173.881ZM897.597 172.019L940.379 54.3694L935.063 52.4364L892.282 170.086L897.597 172.019ZM939.721 55.4027L941.86 53.2636L937.861 49.264L935.722 51.4031L939.721 55.4027ZM939.86 54.0919H952.695V48.4357H939.86V54.0919ZM950.695 53.2636L952.834 55.4027L956.834 51.4031L954.695 49.264L950.695 53.2636ZM952.006 53.4029V68.3765H957.662V53.4029H952.006Z" fill="white" mask="url(#path-1-outside-1_37_2)"/>
<path d="M34.3208 128.977L121.469 40.4834H87.8207L0 128.977L87.8207 218.48H121.469L34.3208 128.977Z" fill="white"/>
<path d="M214.673 118.883L140.984 43.8481L65.6132 120.565H97.5786L140.984 76.823L192.465 128.977L140.984 181.804L97.5786 137.725H65.6132L140.984 215.115L214.673 139.744H293.505L293.777 139.6C302.141 135.151 301.983 123.111 293.505 118.883H214.673Z" fill="white"/>
<rect x="258.41" y="145.722" width="35.3318" height="14.4539" fill="white"/>
</svg>
